<svg xmlns="http://www.w3.org/2000/svg" x="0" y="0" viewBox="0 0 32 40"><title>folder, file, document,file, folder,</title><g data-name="Layer 2"><path d="M30,12V24a3,3,0,0,1-3,3H5a3,3,0,0,1-3-3V8A3,3,0,0,1,5,5h7.76A3,3,0,0,1,15,6a2.75,2.75,0,0,1,.45.66l.89,1.79a1,1,0,0,0,.9.55H27A3,3,0,0,1,30,12ZM27,6H16.22a2.25,2.25,0,0,1,.12.21L17.24,8H27a4,4,0,0,1,3,1.36V9A3,3,0,0,0,27,6Z"/></g><text x="0" y="47" fill="#000" font-family="'Helvetica Neue', Helvetica, Arial-Unicode, Arial, Sans-serif" font-size="5" font-weight="bold">Created by CR Kurniawan</text><text x="0" y="52" fill="#000" font-family="'Helvetica Neue', Helvetica, Arial-Unicode, Arial, Sans-serif" font-size="5" font-weight="bold">from the Noun Project</text></svg>